<!DOCTYPE svg PUBLIC "-//W3C//DTD SVG 20010904//EN" "http://www.w3.org/TR/2001/REC-SVG-20010904/DTD/svg10.dtd">
<svg version="1.0" xmlns="http://www.w3.org/2000/svg" width="120px" height="180px" viewBox="0 0 1200 1800" preserveAspectRatio="xMidYMid meet">
<g id="layer101" fill="#656565" stroke="none">
 <path d="M460 1170 c0 -5 18 -10 40 -10 40 0 40 0 40 -38 0 -37 -1 -38 -30 -34 -46 7 -80 -21 -80 -63 0 -19 -4 -35 -10 -35 -15 0 -12 -80 4 -96 28 -28 35 -14 38 74 l3 87 130 0 130 0 3 -87 c3 -88 10 -102 38 -74 16 16 19 96 4 96 -5 0 -10 16 -10 35 0 42 -34 70 -80 63 -29 -4 -30 -3 -30 34 0 38 0 38 40 38 22 0 40 5 40 10 0 6 -52 10 -135 10 -83 0 -135 -4 -135 -10z"/>
 <path d="M474 858 c9 -232 9 -233 121 -233 112 0 112 1 121 233 l7 182 -128 0 -128 0 7 -182z"/>
 </g>
<g id="layer102" fill="#a4a4a4" stroke="none">
 <path d="M558 1153 c12 -2 30 -2 40 0 9 3 -1 5 -23 4 -22 0 -30 -2 -17 -4z"/>
 <path d="M566 984 c-8 -22 17 -49 38 -41 23 9 14 51 -11 55 -12 2 -23 -4 -27 -14z"/>
 <path d="M423 945 c0 -27 2 -38 4 -22 2 15 2 37 0 50 -2 12 -4 0 -4 -28z"/>
 <path d="M763 945 c0 -27 2 -38 4 -22 2 15 2 37 0 50 -2 12 -4 0 -4 -28z"/>
 <path d="M477 788 c6 -152 13 -162 115 -166 72 -3 77 -1 97 24 18 23 21 40 21 115 0 72 -3 89 -15 89 -9 0 -15 9 -15 21 0 16 5 20 20 16 11 -3 20 -1 20 4 0 5 -56 9 -124 9 l-124 0 5 -112z"/>
 </g>
<g id="layer103" fill="#dbdbdb" stroke="none">
 <path d="M480 762 c0 -76 3 -93 21 -116 20 -25 26 -27 88 -25 40 1 69 7 70 13 2 6 5 53 8 104 3 69 8 92 18 92 10 0 15 -19 18 -72 l3 -73 0 80 -1 80 -112 3 -113 4 0 -90z"/>
 </g>

</svg>